<svg width="87" height="87" viewBox="0 0 87 87" fill="none" xmlns="http://www.w3.org/2000/svg">
<path d="M18.125 46.2536C18.125 41.3317 18.125 38.8708 19.1199 36.7076C20.1148 34.5444 21.9833 32.9429 25.7203 29.7398L29.3453 26.6326C36.0998 20.843 39.4771 17.9482 43.5 17.9482C47.5229 17.9482 50.9002 20.843 57.6547 26.6326L61.2797 29.7398C65.0167 32.9429 66.8852 34.5444 67.8801 36.7076C68.875 38.8708 68.875 41.3317 68.875 46.2536V61.625C68.875 68.4604 68.875 71.8781 66.7515 74.0015C64.628 76.125 61.2104 76.125 54.375 76.125H32.625C25.7896 76.125 22.372 76.125 20.2485 74.0015C18.125 71.8781 18.125 68.4604 18.125 61.625V46.2536Z" stroke="#33363F" stroke-width="2"/>
<path d="M52.5625 76.125V55.375C52.5625 54.8227 52.1148 54.375 51.5625 54.375H35.4375C34.8852 54.375 34.4375 54.8227 34.4375 55.375V76.125" stroke="#33363F" stroke-width="2" stroke-linecap="round" stroke-linejoin="round"/>
</svg>
